<?xml version="1.0" standalone="no"?>
<!DOCTYPE svg PUBLIC "-//W3C//DTD SVG 20010904//EN"
 "http://www.w3.org/TR/2001/REC-SVG-20010904/DTD/svg10.dtd">
<svg version="1.0" xmlns="http://www.w3.org/2000/svg"
 width="1600.000000pt" height="1600.000000pt" viewBox="0 0 1600.000000 1600.000000"
 preserveAspectRatio="xMidYMid meet">
<metadata>
Created by potrace 1.11, written by Peter Selinger 2001-2013
</metadata>
<g transform="translate(0.000000,1600.000000) scale(0.100000,-0.100000)"
fill="#000000" stroke="none">
<path d="M6617 15364 c-1 -1 -58 -5 -127 -8 -131 -7 -179 -11 -270 -21 -119
-13 -149 -17 -265 -36 -409 -68 -750 -174 -1090 -339 -566 -274 -975 -655
-1218 -1132 l-62 -120 -90 -23 c-870 -222 -1608 -965 -1982 -1995 -45 -123
-107 -337 -138 -470 -24 -108 -31 -143 -49 -255 -3 -23 -8 -50 -10 -60 -2 -11
-7 -49 -11 -85 -4 -36 -8 -67 -10 -70 -18 -29 -27 -613 -12 -770 16 -172 43
-346 82 -535 58 -279 252 -844 404 -1179 17 -38 31 -74 31 -80 0 -6 -12 -24
-26 -41 -40 -45 -156 -211 -204 -289 -100 -164 -196 -383 -225 -511 -2 -5 -8
-30 -15 -55 -7 -25 -14 -56 -16 -70 -2 -14 -7 -36 -10 -50 -21 -90 -28 -179
-29 -360 0 -190 6 -254 36 -403 62 -305 224 -639 440 -904 231 -282 595 -564
943 -729 l74 -35 -19 -38 c-36 -76 -115 -334 -134 -441 -39 -217 -48 -380 -31
-566 41 -463 276 -878 656 -1160 239 -177 488 -294 797 -374 64 -17 130 -33
147 -36 17 -3 38 -7 46 -9 8 -2 40 -7 70 -11 30 -4 57 -9 60 -9 3 -1 37 -5 75
-9 99 -11 117 -14 125 -23 3 -4 21 -44 40 -88 182 -429 516 -790 895 -965 219
-102 514 -185 767 -216 24 -3 57 -7 73 -9 188 -26 553 -26 705 0 280 49 558
195 770 405 48 47 95 99 105 114 l18 27 24 -28 c240 -280 541 -456 888 -519
143 -26 488 -25 700 2 432 54 815 187 1075 372 105 75 287 250 372 357 106
133 222 329 286 483 l23 52 67 1 c37 1 81 2 97 4 17 1 71 5 120 9 50 4 101 9
115 11 14 2 50 6 80 10 30 3 80 10 110 15 30 5 71 12 90 15 19 3 53 10 75 15
22 5 54 11 70 14 36 6 214 58 297 86 80 27 126 47 252 108 421 204 729 550
876 981 38 112 48 149 70 271 20 108 25 167 25 325 0 175 -4 214 -40 355 -28
114 -61 206 -127 363 -28 65 -48 119 -47 121 2 1 29 15 59 31 30 16 69 37 85
47 17 10 37 21 45 25 34 15 220 142 289 197 114 90 242 220 321 326 145 195
282 535 324 806 4 22 11 64 16 94 9 51 12 87 25 245 8 94 8 363 1 440 -38 396
-207 745 -532 1098 -24 26 -44 52 -44 56 0 5 21 55 46 112 186 419 314 767
404 1097 41 152 68 272 85 386 4 21 9 48 11 60 2 11 7 44 9 72 3 28 7 60 10
72 20 108 21 587 1 700 -2 9 -7 49 -11 87 -4 39 -9 79 -11 90 -2 10 -6 37 -9
58 -54 362 -189 780 -354 1102 -104 202 -195 349 -322 517 -332 442 -740 780
-1217 1009 -57 27 -106 49 -108 49 -3 0 -29 11 -57 24 -79 36 -278 100 -408
132 l-117 29 -18 45 c-40 100 -158 319 -230 423 -301 439 -740 769 -1284 965
-104 38 -303 98 -354 108 -12 2 -75 15 -141 28 -105 22 -245 43 -395 60 -208
25 -624 25 -765 1 -335 -58 -550 -159 -734 -346 -45 -45 -75 -80 -96 -113
l-17 -26 -31 42 c-45 62 -153 167 -227 220 -142 100 -359 187 -536 213 -21 4
-50 8 -64 10 -73 13 -453 28 -463 19z m383 -645 c30 -5 73 -11 95 -15 22 -3
73 -19 114 -36 162 -68 275 -230 332 -478 18 -76 19 -83 29 -135 9 -49 12 -74
26 -185 3 -30 8 -68 11 -85 10 -58 14 -3488 4 -3494 -13 -9 -929 -6 -938 2 -4
4 -7 361 -7 794 l-1 787 -662 0 -663 1 -35 75 c-171 354 -512 568 -890 555
-105 -4 -126 -7 -215 -30 -164 -44 -303 -126 -430 -255 -145 -147 -235 -323
-267 -521 -9 -56 -10 -220 -1 -280 54 -370 338 -686 704 -784 155 -42 343 -39
499 6 257 76 480 268 596 515 l38 81 345 1 346 0 0 -794 0 -794 795 0 795 0 0
-1270 0 -1270 -1112 0 -1113 0 1 -981 1 -980 -66 -30 c-480 -218 -696 -767
-489 -1243 130 -297 419 -519 733 -564 62 -9 226 -9 282 0 398 65 723 380 793
771 56 313 -46 626 -277 848 -77 74 -183 147 -279 190 l-64 29 2 663 3 662
790 0 790 0 0 -2170 c0 -1193 -3 -2190 -7 -2215 -51 -340 -259 -580 -573 -660
-103 -26 -151 -31 -300 -30 -177 1 -287 9 -460 36 -447 70 -810 262 -1000 529
-102 144 -157 273 -220 523 -25 97 -45 176 -45 177 0 0 -87 2 -192 3 -189 1
-249 5 -319 16 -18 3 -52 8 -74 11 -53 7 -195 41 -270 64 -130 41 -338 134
-373 168 -7 7 -17 13 -22 13 -15 0 -174 122 -239 184 -106 101 -215 262 -270
397 -92 230 -93 501 -1 779 38 115 110 276 172 382 71 123 151 256 188 316
l39 63 -27 10 c-15 6 -38 15 -52 19 -140 46 -400 137 -482 171 -579 236 -975
630 -1122 1120 -23 76 -32 119 -52 244 -9 53 -9 284 0 360 25 209 59 325 146
492 82 158 166 267 403 527 l54 59 516 1 515 1 33 -70 c122 -267 357 -465 644
-541 100 -26 331 -26 435 0 305 78 551 289 668 575 91 222 88 497 -7 721 -33
76 -108 198 -150 243 -156 167 -297 257 -481 306 -103 27 -140 32 -252 32
-309 -1 -599 -158 -778 -421 -40 -59 -100 -178 -100 -199 0 -12 -3 -12 -185
-12 -69 0 -347 0 -619 0 l-493 1 -46 118 c-113 290 -191 551 -253 847 -2 11
-13 81 -24 155 -63 430 -36 915 75 1335 15 55 28 107 30 115 12 48 82 247 117
334 324 793 914 1372 1543 1515 44 10 103 21 130 25 28 3 75 9 105 12 30 4 62
8 70 10 8 1 22 3 31 3 12 1 25 32 49 119 18 64 49 154 70 199 36 78 111 202
141 233 8 8 32 37 54 65 143 177 414 392 675 535 394 214 917 362 1400 396 52
3 96 7 97 8 8 7 427 3 473 -5z m2460 -2 c14 -3 57 -8 95 -11 104 -10 219 -27
345 -51 215 -41 518 -148 678 -239 35 -20 66 -36 68 -36 12 0 177 -115 251
-175 157 -126 315 -321 412 -505 66 -126 101 -217 146 -380 21 -74 41 -138 44
-142 7 -8 32 -12 166 -28 637 -77 1226 -429 1671 -1000 282 -363 502 -863 579
-1320 3 -19 8 -42 10 -50 2 -8 7 -42 10 -75 4 -33 8 -67 10 -75 24 -98 25
-582 1 -717 -5 -29 -15 -85 -21 -123 -18 -106 -66 -318 -85 -370 -4 -14 -23
-74 -41 -135 -56 -191 -199 -569 -297 -786 -11 -24 -32 -69 -45 -99 -14 -30
-47 -102 -75 -160 -93 -196 -113 -243 -106 -249 3 -3 94 -96 202 -206 319
-324 403 -449 458 -682 22 -96 28 -166 29 -328 0 -249 -15 -389 -70 -629 -25
-109 -96 -269 -171 -384 -56 -86 -182 -221 -259 -278 -22 -16 -42 -31 -45 -34
-13 -13 -70 -50 -78 -50 -4 0 -8 309 -7 688 0 378 -1 692 -2 697 -2 7 -486 10
-1428 9 -784 0 -1426 2 -1426 5 -1 4 -2 230 -3 504 l-1 498 92 45 c239 117
421 324 496 565 38 122 45 171 45 284 0 87 -4 131 -23 220 -44 214 -217 460
-410 583 -62 39 -211 104 -285 124 -72 19 -109 23 -240 22 -139 -1 -164 -3
-244 -28 -260 -79 -465 -245 -589 -477 -32 -59 -72 -161 -83 -214 -25 -110
-34 -282 -20 -352 3 -15 8 -42 11 -59 9 -56 57 -188 92 -254 99 -186 283 -354
470 -432 l53 -22 0 -130 c1 -72 1 -443 1 -823 l0 -693 1430 0 1430 0 -1 -668
c-2 -762 -13 -658 101 -903 97 -206 166 -384 190 -487 19 -85 21 -96 23 -166
5 -206 -36 -411 -114 -567 -134 -268 -440 -478 -860 -593 -79 -21 -236 -54
-295 -61 -27 -4 -57 -8 -65 -10 -8 -2 -46 -7 -85 -10 -38 -4 -77 -8 -85 -10
-29 -8 -282 -17 -462 -18 l-184 0 -38 -151 c-44 -178 -77 -273 -127 -376 -166
-341 -483 -562 -964 -675 -55 -13 -125 -26 -155 -30 -30 -4 -62 -9 -70 -10
-16 -3 -94 -11 -190 -21 -80 -8 -275 -7 -350 1 -304 33 -553 220 -656 491 -58
154 -57 139 -58 1127 -1 499 1 908 4 909 3 0 301 2 662 3 l658 1 44 -90 c168
-345 511 -556 882 -541 55 2 111 6 125 9 13 3 35 8 49 10 14 2 54 14 90 26
342 115 590 406 647 760 4 25 7 97 7 160 0 182 -47 337 -149 495 -69 107 -134
177 -230 248 -176 131 -358 192 -570 191 -95 0 -136 -5 -230 -28 -72 -18 -95
-27 -200 -77 -172 -82 -348 -270 -436 -465 l-29 -64 -663 2 -662 3 0 3331 0
3332 1297 -1 1298 0 44 -91 c215 -441 707 -647 1166 -488 181 63 361 201 470
362 74 108 136 259 156 380 12 66 11 242 -1 310 -79 450 -463 785 -912 795
-92 2 -131 -1 -230 -19 -145 -27 -361 -148 -471 -266 -84 -89 -187 -248 -214
-330 -4 -13 -158 -15 -1301 -16 -916 0 -1297 3 -1300 10 -7 20 0 1759 7 1851
27 346 94 613 190 758 42 64 112 129 168 158 123 63 234 78 553 74 143 -2 271
-6 285 -8z m-4879 -2875 c61 -30 113 -84 147 -151 38 -79 38 -191 -1 -271 -34
-70 -87 -122 -159 -154 -77 -34 -189 -32 -263 4 -194 97 -236 359 -83 510 69
68 130 91 233 87 58 -2 94 -9 126 -25z m7312 -6 c94 -48 150 -129 165 -238 18
-141 -49 -267 -176 -330 -39 -19 -62 -23 -137 -23 -77 1 -97 5 -141 27 -60 32
-115 90 -145 155 -31 66 -32 188 -2 255 29 64 95 133 157 162 43 21 64 25 136
23 72 -2 94 -7 143 -31z m-1596 -2853 c177 -82 232 -319 112 -477 -128 -167
-397 -157 -516 19 -55 81 -64 213 -21 307 73 159 263 227 425 151z m-5713
-318 c236 -111 233 -463 -5 -569 -158 -72 -339 -10 -414 141 -25 50 -29 69
-29 143 0 96 18 150 73 213 91 103 246 133 375 72z m1221 -4110 c78 -21 153
-83 193 -159 22 -44 26 -64 27 -141 0 -106 -19 -155 -84 -222 -76 -77 -177
-108 -286 -88 -75 14 -117 36 -166 86 -49 50 -68 86 -83 162 -47 232 165 424
399 362z m4807 -14 c248 -119 235 -484 -22 -582 -63 -24 -159 -25 -224 -2 -66
24 -139 91 -172 160 -24 48 -28 68 -27 137 1 150 81 260 223 307 46 15 171 4
222 -20z"/>
</g>
</svg>
